<?xml version="1.0" encoding="UTF-8"?><svg id="Layer_1" xmlns="http://www.w3.org/2000/svg" xmlns:xlink="http://www.w3.org/1999/xlink" viewBox="0 0 500 500"><defs><style>.cls-1{fill:url(#linear-gradient);}</style><linearGradient id="linear-gradient" x1="89.02" y1="125.63" x2="377.78" y2="414.4" gradientUnits="userSpaceOnUse"><stop offset="0" stop-color="#b500e6"/><stop offset="1" stop-color="#e67000"/></linearGradient></defs><path class="cls-1" d="M400,250c0,17.28-2.93,33.87-8.3,49.32-1.55-.64-3.25-.99-5.03-.99h-50c-34.06,0-61.67-27.61-61.67-61.67v-50c0-7.35-5.98-13.33-13.33-13.33h-75c-7.36,0-13.33,5.98-13.33,13.33v75c0,7.35,5.97,13.33,13.33,13.33h50c34.06,0,61.67,27.61,61.67,61.67v50c0,1.78.35,3.48.99,5.03-15.45,5.37-32.04,8.3-49.32,8.3h-125c-13.81,0-25-11.19-25-25V125c0-13.81,11.19-25,25-25h125c82.84,0,150,67.16,150,150ZM391.7,299.32c-7.51,21.58-19.82,40.93-35.63,56.74-15.82,15.82-35.16,28.12-56.74,35.63,1.98,4.87,6.77,8.3,12.34,8.3h75c7.35,0,13.33-5.98,13.33-13.33v-75c0-5.57-3.43-10.35-8.3-12.34Z"/></svg>