<?xml version="1.0" encoding="UTF-8"?><svg id="Layer_1" xmlns="http://www.w3.org/2000/svg" xmlns:xlink="http://www.w3.org/1999/xlink" viewBox="0 0 1764.22 500"><defs><style>.cls-1{fill:#1a1a23;}.cls-2{fill:url(#linear-gradient);}</style><linearGradient id="linear-gradient" x1="89.02" y1="125.63" x2="377.78" y2="414.4" gradientUnits="userSpaceOnUse"><stop offset="0" stop-color="#b500e6"/><stop offset="1" stop-color="#e67000"/></linearGradient></defs><path class="cls-2" d="M400,250c0,17.28-2.93,33.87-8.3,49.32-1.55-.64-3.25-.99-5.03-.99h-50c-34.06,0-61.67-27.61-61.67-61.67v-50c0-7.35-5.98-13.33-13.33-13.33h-75c-7.36,0-13.33,5.98-13.33,13.33v75c0,7.35,5.97,13.33,13.33,13.33h50c34.06,0,61.67,27.61,61.67,61.67v50c0,1.78.35,3.48.99,5.03-15.45,5.37-32.04,8.3-49.32,8.3h-125c-13.81,0-25-11.19-25-25V125c0-13.81,11.19-25,25-25h125c82.84,0,150,67.16,150,150ZM391.7,299.32c-7.51,21.58-19.82,40.93-35.63,56.74-15.82,15.82-35.16,28.12-56.74,35.63,1.98,4.87,6.77,8.3,12.34,8.3h75c7.35,0,13.33-5.98,13.33-13.33v-75c0-5.57-3.43-10.35-8.3-12.34Z"/><path class="cls-1" d="M581.03,129.36c59.23,0,88.66,27.62,88.66,83.58v73.76c0,55.96-29.43,83.94-88.66,83.94h-72.67c-4.62,0-8.36-3.74-8.36-8.36v-222.92c0-5.52,4.48-10,10-10h71.03ZM626.09,216.93c0-33.79-14.9-49.78-47.24-49.78h-30.25c-2.76,0-5,2.24-5,5v155.7c0,2.76,2.24,5,5,5h30.25c32.34,0,47.24-15.99,47.24-50.15v-65.77Z"/><path class="cls-1" d="M698.4,212.21c0-56.32,31.25-87.21,88.66-87.21s88.66,30.89,88.66,87.21v75.58c0,56.32-31.61,87.21-88.66,87.21s-88.66-30.89-88.66-87.21v-75.58ZM742,283.79c0,35.97,14.9,53.42,45.06,53.42s45.06-17.44,45.06-53.42v-67.59c0-35.97-14.53-53.42-45.06-53.42s-45.06,17.44-45.06,53.42v67.59Z"/><path class="cls-1" d="M955.66,362.28c0,4.62-3.74,8.36-8.36,8.36h-26.89c-4.62,0-8.36-3.74-8.36-8.36v-224.56c0-4.62,3.74-8.36,8.36-8.36h26.89c4.62,0,8.36,3.74,8.36,8.36v97.38l74.13-100.65c2.54-3.63,5.45-5.09,10.17-5.09h32.34c7.27,0,9.45,4.72,5.09,10.17l-81.55,104.85c-1.4,1.81-1.4,4.33,0,6.14l85.55,109.94c4.36,5.45,2.18,10.17-5.09,10.17h-34.88c-4.72,0-7.63-1.45-10.17-5.09l-75.58-101.74v98.47Z"/><path class="cls-1" d="M1241.27,229.65c4.62,0,8.36,3.74,8.36,8.36v21.08c0,4.62-3.74,8.36-8.36,8.36h-81.48c-2.76,0-5,2.24-5,5v55.41c0,2.76,2.24,5,5,5h97.47c4.62,0,8.36,3.74,8.36,8.36v21.08c0,4.62-3.74,8.36-8.36,8.36h-137.72c-4.62,0-8.36-3.74-8.36-8.36v-224.56c0-4.62,3.74-8.36,8.36-8.36h137.72c4.62,0,8.36,3.74,8.36,8.36v21.08c0,4.62-3.74,8.36-8.36,8.36h-97.47c-2.76,0-5,2.24-5,5v52.5c0,2.76,2.24,5,5,5h81.48Z"/><path class="cls-1" d="M1341.55,362.28c0,4.62-3.74,8.36-8.36,8.36h-26.89c-4.62,0-8.36-3.74-8.36-8.36v-224.56c0-4.62,3.74-8.36,8.36-8.36h66.86c59.23,0,87.57,24.35,87.57,74.49,0,37.79-15.62,61.41-47.97,70.86l49.42,85.76c3.27,5.81,1.09,10.17-5.81,10.17h-31.25c-4.72,0-7.99-1.82-10.17-5.81l-44.33-85.03h-24.07c-2.76,0-5,2.24-5,5v77.49ZM1373.16,242.01c30.16,0,43.6-11.99,43.6-37.06s-13.44-37.79-43.6-37.79h-26.61c-2.76,0-5,2.24-5,5v64.85c0,2.76,2.24,5,5,5h26.61Z"/><path class="cls-1" d="M1486.9,212.21c0-56.32,31.25-87.21,88.66-87.21s88.66,30.89,88.66,87.21v75.58c0,56.32-31.61,87.21-88.66,87.21s-88.66-30.89-88.66-87.21v-75.58ZM1530.5,283.79c0,35.97,14.9,53.42,45.06,53.42s45.06-17.44,45.06-53.42v-67.59c0-35.97-14.53-53.42-45.06-53.42s-45.06,17.44-45.06,53.42v67.59Z"/></svg>